{
    "asset" : {
        "generator" : "Khronos glTF Blender I/O v1.0.4",
        "version" : "2.0"
    },
    "scene" : 0,
    "scenes" : [
        {
            "name" : "Scene",
            "nodes" : [
                0,
                1,
                2,
                3,
                4,
                5,
                6,
                7
            ]
        }
    ],
    "nodes" : [
        {
            "name" : "Light",
            "rotation" : [
                0.16907575726509094,
                0.7558803558349609,
                -0.27217137813568115,
                0.570947527885437
            ],
            "translation" : [
                4.076245307922363,
                5.903861999511719,
                -1.0054539442062378
            ]
        },
        {
            "name" : "Camera",
            "rotation" : [
                0.483536034822464,
                0.33687159419059753,
                -0.20870360732078552,
                0.7804827094078064
            ],
            "translation" : [
                7.358891487121582,
                4.958309173583984,
                6.925790786743164
            ]
        },
        {
            "mesh" : 0,
            "name" : "Curve.001",
            "scale" : [
                2.9652514457702637,
                1,
                2.9652514457702637
            ],
            "translation" : [
                0.050237059593200684,
                0,
                0.010649651288986206
            ]
        },
        {
            "mesh" : 1,
            "name" : "Curve.002",
            "scale" : [
                2.9652514457702637,
                1,
                2.9652514457702637
            ],
            "translation" : [
                -0.0931960940361023,
                0,
                -0.002556324005126953
            ]
        },
        {
            "mesh" : 2,
            "name" : "Curve.003",
            "scale" : [
                2.9652514457702637,
                1,
                2.9652514457702637
            ],
            "translation" : [
                0.15018236637115479,
                0,
                -0.00831112265586853
            ]
        },
        {
            "mesh" : 3,
            "name" : "Curve.004",
            "scale" : [
                2.9652514457702637,
                1,
                2.9652514457702637
            ],
            "translation" : [
                -0.1750938892364502,
                0,
                -0.005795508623123169
            ]
        },
        {
            "mesh" : 4,
            "name" : "Curve.006",
            "scale" : [
                2.9652514457702637,
                1,
                2.9652514457702637
            ],
            "translation" : [
                0.08022332191467285,
                0,
                -0.0011962950229644775
            ]
        },
        {
            "mesh" : 5,
            "name" : "Curve.007",
            "scale" : [
                2.9652514457702637,
                1,
                2.9652514457702637
            ],
            "translation" : [
                0.004979550838470459,
                0,
                0.00721856951713562
            ]
        }
    ],
    "materials" : [
        {
            "doubleSided" : true,
            "name" : "SVGMat.004",
            "pbrMetallicRoughness" : {}
        }
    ],
    "meshes" : [
        {
            "name" : "Curve.002",
            "primitives" : [
                {
                    "attributes" : {
                        "POSITION" : 0,
                        "NORMAL" : 1
                    },
                    "indices" : 2,
                    "material" : 0
                }
            ]
        },
        {
            "name" : "Curve.003",
            "primitives" : [
                {
                    "attributes" : {
                        "POSITION" : 3,
                        "NORMAL" : 4
                    },
                    "indices" : 5,
                    "material" : 0
                }
            ]
        },
        {
            "name" : "Curve.004",
            "primitives" : [
                {
                    "attributes" : {
                        "POSITION" : 6,
                        "NORMAL" : 7
                    },
                    "indices" : 8,
                    "material" : 0
                }
            ]
        },
        {
            "name" : "Curve.005",
            "primitives" : [
                {
                    "attributes" : {
                        "POSITION" : 9,
                        "NORMAL" : 10
                    },
                    "indices" : 11,
                    "material" : 0
                }
            ]
        },
        {
            "name" : "Curve.007",
            "primitives" : [
                {
                    "attributes" : {
                        "POSITION" : 12,
                        "NORMAL" : 13
                    },
                    "indices" : 14,
                    "material" : 0
                }
            ]
        },
        {
            "name" : "Curve.008",
            "primitives" : [
                {
                    "attributes" : {
                        "POSITION" : 15,
                        "NORMAL" : 16
                    },
                    "indices" : 17,
                    "material" : 0
                }
            ]
        }
    ],
    "accessors" : [
        {
            "bufferView" : 0,
            "componentType" : 5126,
            "count" : 797,
            "max" : [
                0.021636754274368286,
                0.0209164060652256,
                0.01461493968963623
            ],
            "min" : [
                -0.029692456126213074,
                0,
                -0.02786269783973694
            ],
            "type" : "VEC3"
        },
        {
            "bufferView" : 1,
            "componentType" : 5126,
            "count" : 797,
            "type" : "VEC3"
        },
        {
            "bufferView" : 2,
            "componentType" : 5123,
            "count" : 1728,
            "type" : "SCALAR"
        },
        {
            "bufferView" : 3,
            "componentType" : 5126,
            "count" : 1108,
            "max" : [
                0.016164615750312805,
                0.0209164060652256,
                0.010846123099327087
            ],
            "min" : [
                -0.016125082969665527,
                0,
                -0.011611640453338623
            ],
            "type" : "VEC3"
        },
        {
            "bufferView" : 4,
            "componentType" : 5126,
            "count" : 1108,
            "type" : "VEC3"
        },
        {
            "bufferView" : 5,
            "componentType" : 5123,
            "count" : 2148,
            "type" : "SCALAR"
        },
        {
            "bufferView" : 6,
            "componentType" : 5126,
            "count" : 1847,
            "max" : [
                0.01203321572393179,
                0.0209164060652256,
                0.01273326575756073
            ],
            "min" : [
                -0.009249299764633179,
                0,
                -0.009699121117591858
            ],
            "type" : "VEC3"
        },
        {
            "bufferView" : 7,
            "componentType" : 5126,
            "count" : 1847,
            "type" : "VEC3"
        },
        {
            "bufferView" : 8,
            "componentType" : 5123,
            "count" : 3444,
            "type" : "SCALAR"
        },
        {
            "bufferView" : 9,
            "componentType" : 5126,
            "count" : 2521,
            "max" : [
                0.009661577641963959,
                0.0209164060652256,
                0.012251525186002254
            ],
            "min" : [
                -0.00844813883304596,
                0,
                -0.010891078971326351
            ],
            "type" : "VEC3"
        },
        {
            "bufferView" : 10,
            "componentType" : 5126,
            "count" : 2521,
            "type" : "VEC3"
        },
        {
            "bufferView" : 11,
            "componentType" : 5123,
            "count" : 4452,
            "type" : "SCALAR"
        },
        {
            "bufferView" : 12,
            "componentType" : 5126,
            "count" : 2157,
            "max" : [
                0.00926222000271082,
                0.0209164060652256,
                0.010374094359576702
            ],
            "min" : [
                -0.010537594556808472,
                0,
                -0.012115463614463806
            ],
            "type" : "VEC3"
        },
        {
            "bufferView" : 13,
            "componentType" : 5126,
            "count" : 2157,
            "type" : "VEC3"
        },
        {
            "bufferView" : 14,
            "componentType" : 5123,
            "count" : 4176,
            "type" : "SCALAR"
        },
        {
            "bufferView" : 15,
            "componentType" : 5126,
            "count" : 1138,
            "max" : [
                0.01289588212966919,
                0.0209164060652256,
                0.007507339119911194
            ],
            "min" : [
                -0.011762350797653198,
                0,
                -0.014899671077728271
            ],
            "type" : "VEC3"
        },
        {
            "bufferView" : 16,
            "componentType" : 5126,
            "count" : 1138,
            "type" : "VEC3"
        },
        {
            "bufferView" : 17,
            "componentType" : 5123,
            "count" : 2160,
            "type" : "SCALAR"
        }
    ],
    "bufferViews" : [
        {
            "buffer" : 0,
            "byteLength" : 9564,
            "byteOffset" : 0
        },
        {
            "buffer" : 0,
            "byteLength" : 9564,
            "byteOffset" : 9564
        },
        {
            "buffer" : 0,
            "byteLength" : 3456,
            "byteOffset" : 19128
        },
        {
            "buffer" : 0,
            "byteLength" : 13296,
            "byteOffset" : 22584
        },
        {
            "buffer" : 0,
            "byteLength" : 13296,
            "byteOffset" : 35880
        },
        {
            "buffer" : 0,
            "byteLength" : 4296,
            "byteOffset" : 49176
        },
        {
            "buffer" : 0,
            "byteLength" : 22164,
            "byteOffset" : 53472
        },
        {
            "buffer" : 0,
            "byteLength" : 22164,
            "byteOffset" : 75636
        },
        {
            "buffer" : 0,
            "byteLength" : 6888,
            "byteOffset" : 97800
        },
        {
            "buffer" : 0,
            "byteLength" : 30252,
            "byteOffset" : 104688
        },
        {
            "buffer" : 0,
            "byteLength" : 30252,
            "byteOffset" : 134940
        },
        {
            "buffer" : 0,
            "byteLength" : 8904,
            "byteOffset" : 165192
        },
        {
            "buffer" : 0,
            "byteLength" : 25884,
            "byteOffset" : 174096
        },
        {
            "buffer" : 0,
            "byteLength" : 25884,
            "byteOffset" : 199980
        },
        {
            "buffer" : 0,
            "byteLength" : 8352,
            "byteOffset" : 225864
        },
        {
            "buffer" : 0,
            "byteLength" : 13656,
            "byteOffset" : 234216
        },
        {
            "buffer" : 0,
            "byteLength" : 13656,
            "byteOffset" : 247872
        },
        {
            "buffer" : 0,
            "byteLength" : 4320,
            "byteOffset" : 261528
        }
    ],
    "buffers" : [
        {
            "byteLength" : 265848,
            "uri" : "data:application/octet-stream;base64,"
        }
    ]
}
