{
    "asset" : {
        "generator" : "Khronos glTF Blender I/O v1.0.4",
        "version" : "2.0"
    },
    "scene" : 0,
    "scenes" : [
        {
            "name" : "Scene",
            "nodes" : [
                0,
                1,
                2,
                3,
                4,
                5,
                6,
                7
            ]
        }
    ],
    "nodes" : [
        {
            "name" : "Light",
            "rotation" : [
                0.16907575726509094,
                0.7558803558349609,
                -0.27217137813568115,
                0.570947527885437
            ],
            "translation" : [
                4.076245307922363,
                5.903861999511719,
                -1.0054539442062378
            ]
        },
        {
            "name" : "Camera",
            "rotation" : [
                0.483536034822464,
                0.33687159419059753,
                -0.20870360732078552,
                0.7804827094078064
            ],
            "translation" : [
                7.358891487121582,
                4.958309173583984,
                6.925790786743164
            ]
        },
        {
            "mesh" : 0,
            "name" : "Curve.001",
            "scale" : [
                27.064571380615234,
                1,
                27.064571380615234
            ],
            "translation" : [
                0.43504852056503296,
                0,
                0.09718980640172958
            ]
        },
        {
            "mesh" : 1,
            "name" : "Curve.002",
            "scale" : [
                27.064571380615234,
                1,
                27.064571380615234
            ],
            "translation" : [
                -0.8741006851196289,
                0,
                -0.023344339802861214
            ]
        },
        {
            "mesh" : 2,
            "name" : "Curve.003",
            "scale" : [
                27.064571380615234,
                1,
                27.064571380615234
            ],
            "translation" : [
                1.347273588180542,
                0,
                -0.07586978375911713
            ]
        },
        {
            "mesh" : 3,
            "name" : "Curve.004",
            "scale" : [
                27.064571380615234,
                1,
                27.064571380615234
            ],
            "translation" : [
                -1.621601939201355,
                0,
                -0.05290916934609413
            ]
        },
        {
            "mesh" : 4,
            "name" : "Curve.006",
            "scale" : [
                27.064571380615234,
                1,
                27.064571380615234
            ],
            "translation" : [
                0.7087404727935791,
                0,
                -0.010931027121841908
            ]
        },
        {
            "mesh" : 5,
            "name" : "Curve.007",
            "scale" : [
                27.064571380615234,
                1,
                27.064571380615234
            ],
            "translation" : [
                0.02197224646806717,
                0,
                0.06587348878383636
            ]
        }
    ],
    "materials" : [
        {
            "doubleSided" : true,
            "name" : "SVGMat.004",
            "pbrMetallicRoughness" : {}
        }
    ],
    "meshes" : [
        {
            "name" : "Curve.002",
            "primitives" : [
                {
                    "attributes" : {
                        "POSITION" : 0,
                        "NORMAL" : 1
                    },
                    "indices" : 2,
                    "material" : 0
                }
            ]
        },
        {
            "name" : "Curve.003",
            "primitives" : [
                {
                    "attributes" : {
                        "POSITION" : 3,
                        "NORMAL" : 4
                    },
                    "indices" : 5,
                    "material" : 0
                }
            ]
        },
        {
            "name" : "Curve.004",
            "primitives" : [
                {
                    "attributes" : {
                        "POSITION" : 6,
                        "NORMAL" : 7
                    },
                    "indices" : 8,
                    "material" : 0
                }
            ]
        },
        {
            "name" : "Curve.005",
            "primitives" : [
                {
                    "attributes" : {
                        "POSITION" : 9,
                        "NORMAL" : 10
                    },
                    "indices" : 11,
                    "material" : 0
                }
            ]
        },
        {
            "name" : "Curve.007",
            "primitives" : [
                {
                    "attributes" : {
                        "POSITION" : 12,
                        "NORMAL" : 13
                    },
                    "indices" : 14,
                    "material" : 0
                }
            ]
        },
        {
            "name" : "Curve.008",
            "primitives" : [
                {
                    "attributes" : {
                        "POSITION" : 15,
                        "NORMAL" : 16
                    },
                    "indices" : 17,
                    "material" : 0
                }
            ]
        }
    ],
    "accessors" : [
        {
            "bufferView" : 0,
            "componentType" : 5126,
            "count" : 1162,
            "max" : [
                0.021636754274368286,
                0.12353922426700592,
                0.01461493968963623
            ],
            "min" : [
                -0.029692456126213074,
                0,
                -0.02786269783973694
            ],
            "type" : "VEC3"
        },
        {
            "bufferView" : 1,
            "componentType" : 5126,
            "count" : 1162,
            "type" : "VEC3"
        },
        {
            "bufferView" : 2,
            "componentType" : 5123,
            "count" : 2592,
            "type" : "SCALAR"
        },
        {
            "bufferView" : 3,
            "componentType" : 5126,
            "count" : 1614,
            "max" : [
                0.016164615750312805,
                0.12353922426700592,
                0.010846123099327087
            ],
            "min" : [
                -0.016125082969665527,
                0,
                -0.011611640453338623
            ],
            "type" : "VEC3"
        },
        {
            "bufferView" : 4,
            "componentType" : 5126,
            "count" : 1614,
            "type" : "VEC3"
        },
        {
            "bufferView" : 5,
            "componentType" : 5123,
            "count" : 3228,
            "type" : "SCALAR"
        },
        {
            "bufferView" : 6,
            "componentType" : 5126,
            "count" : 2703,
            "max" : [
                0.01203321572393179,
                0.12353922426700592,
                0.01273326575756073
            ],
            "min" : [
                -0.009249299764633179,
                0,
                -0.009699121117591858
            ],
            "type" : "VEC3"
        },
        {
            "bufferView" : 7,
            "componentType" : 5126,
            "count" : 2703,
            "type" : "VEC3"
        },
        {
            "bufferView" : 8,
            "componentType" : 5123,
            "count" : 5172,
            "type" : "SCALAR"
        },
        {
            "bufferView" : 9,
            "componentType" : 5126,
            "count" : 3849,
            "max" : [
                0.009661577641963959,
                0.12353922426700592,
                0.012251525186002254
            ],
            "min" : [
                -0.00844813883304596,
                0,
                -0.010891078971326351
            ],
            "type" : "VEC3"
        },
        {
            "bufferView" : 10,
            "componentType" : 5126,
            "count" : 3849,
            "type" : "VEC3"
        },
        {
            "bufferView" : 11,
            "componentType" : 5123,
            "count" : 6684,
            "type" : "SCALAR"
        },
        {
            "bufferView" : 12,
            "componentType" : 5126,
            "count" : 3185,
            "max" : [
                0.00926222000271082,
                0.12353922426700592,
                0.010374094359576702
            ],
            "min" : [
                -0.010537594556808472,
                0,
                -0.012115463614463806
            ],
            "type" : "VEC3"
        },
        {
            "bufferView" : 13,
            "componentType" : 5126,
            "count" : 3185,
            "type" : "VEC3"
        },
        {
            "bufferView" : 14,
            "componentType" : 5123,
            "count" : 6264,
            "type" : "SCALAR"
        },
        {
            "bufferView" : 15,
            "componentType" : 5126,
            "count" : 1700,
            "max" : [
                0.01289588212966919,
                0.12353922426700592,
                0.007507339119911194
            ],
            "min" : [
                -0.011762350797653198,
                0,
                -0.014899671077728271
            ],
            "type" : "VEC3"
        },
        {
            "bufferView" : 16,
            "componentType" : 5126,
            "count" : 1700,
            "type" : "VEC3"
        },
        {
            "bufferView" : 17,
            "componentType" : 5123,
            "count" : 3240,
            "type" : "SCALAR"
        }
    ],
    "bufferViews" : [
        {
            "buffer" : 0,
            "byteLength" : 13944,
            "byteOffset" : 0
        },
        {
            "buffer" : 0,
            "byteLength" : 13944,
            "byteOffset" : 13944
        },
        {
            "buffer" : 0,
            "byteLength" : 5184,
            "byteOffset" : 27888
        },
        {
            "buffer" : 0,
            "byteLength" : 19368,
            "byteOffset" : 33072
        },
        {
            "buffer" : 0,
            "byteLength" : 19368,
            "byteOffset" : 52440
        },
        {
            "buffer" : 0,
            "byteLength" : 6456,
            "byteOffset" : 71808
        },
        {
            "buffer" : 0,
            "byteLength" : 32436,
            "byteOffset" : 78264
        },
        {
            "buffer" : 0,
            "byteLength" : 32436,
            "byteOffset" : 110700
        },
        {
            "buffer" : 0,
            "byteLength" : 10344,
            "byteOffset" : 143136
        },
        {
            "buffer" : 0,
            "byteLength" : 46188,
            "byteOffset" : 153480
        },
        {
            "buffer" : 0,
            "byteLength" : 46188,
            "byteOffset" : 199668
        },
        {
            "buffer" : 0,
            "byteLength" : 13368,
            "byteOffset" : 245856
        },
        {
            "buffer" : 0,
            "byteLength" : 38220,
            "byteOffset" : 259224
        },
        {
            "buffer" : 0,
            "byteLength" : 38220,
            "byteOffset" : 297444
        },
        {
            "buffer" : 0,
            "byteLength" : 12528,
            "byteOffset" : 335664
        },
        {
            "buffer" : 0,
            "byteLength" : 20400,
            "byteOffset" : 348192
        },
        {
            "buffer" : 0,
            "byteLength" : 20400,
            "byteOffset" : 368592
        },
        {
            "buffer" : 0,
            "byteLength" : 6480,
            "byteOffset" : 388992
        }
    ],
    "buffers" : [
        {
            "byteLength" : 395472,
            "uri" : "data:application/octet-stream;base64,"
        }
    ]
}
